<svg xmlns="http://www.w3.org/2000/svg" xml:space="preserve" width="471.982" height="473.556" viewBox="-206.827 -207.477 471.982 473.556"><path d="M-206.827-207.477h471.979v473.556h-471.979z" style="fill:#1a1a1a"/><path d="M29.158-207.477h235.997v473.556H29.158z" style="fill:#268bcc"/><path d="m202.07-4.341-31.656 20.379 10.984-34.875-28.421-19.039h35.671l13.422-36.473 13.422 36.473h35.655l-28.17 19.32 10.734 34.594zM91.836-4.341 60.445 16.038l10.719-34.875-28.422-19.039H78.43l13.406-36.473 13.422 36.473h35.672l-28.157 19.32 10.719 34.594zM147.086 92.213l-31.656 20.102 10.718-34.586-28.14-19.312h35.656l13.422-36.208 13.406 36.465h35.656l-28.406 19.055 11 34.859z" style="fill:#f9f9f9" transform="translate(-1.776 -1.776)"/><path d="M26.357 8.187C14.9 6.043 13.029-1.731-4.53-1.731c-20.402 0-17.297 10.797-41.672 10.797-24.375 0-21.871-10.797-42.273-10.797-20.406 0-18.895 10.797-42.359 10.797-23.473 0-21.184-10.797-41.586-10.797-18.973 0-19.637 9.047-33.797 10.328v-34.395c14.16-1.277 14.824-10.328 33.797-10.328 20.402 0 18.113 10.793 41.586 10.793 23.465 0 21.953-10.793 42.359-10.793 20.402 0 17.898 10.793 42.273 10.793 24.375 0 21.27-10.793 41.672-10.793 17.559 0 19.438 7.762 30.887 9.938V8.187zM26.357 54.125C14.9 51.984 13.029 44.203-4.53 44.203-24.932 44.203-21.827 55-46.202 55c-24.375 0-21.871-10.797-42.273-10.797-20.406 0-18.895 10.797-42.359 10.797-23.473 0-21.184-10.797-41.586-10.797-18.973 0-19.637 9.047-33.797 10.328v-34.39c14.16-1.281 14.824-10.328 33.797-10.328 20.402 0 18.113 10.801 41.586 10.801 23.465 0 21.953-10.801 42.359-10.801 20.402 0 17.898 10.801 42.273 10.801 24.375 0 21.27-10.801 41.672-10.801 17.559 0 19.438 7.766 30.887 9.918v34.394zM26.357 100.062C14.9 97.898 13.029 90.14-4.53 90.14c-20.402 0-17.297 10.781-41.672 10.781-24.375 0-21.871-10.781-42.273-10.781-20.406 0-18.895 10.781-42.359 10.781-23.473 0-21.184-10.781-41.586-10.781-18.973 0-19.637 9.047-33.797 10.313V66.062c14.16-1.266 14.824-10.313 33.797-10.313 20.402 0 18.113 10.781 41.586 10.781 23.465 0 21.953-10.781 42.359-10.781 20.402 0 17.898 10.781 42.273 10.781 24.375 0 21.27-10.781 41.672-10.781 17.559 0 19.438 7.766 30.887 9.922v34.391z" style="fill:#f9f9f9"/></svg>