<svg xmlns="http://www.w3.org/2000/svg" xml:space="preserve" width="472.175" height="472.727" viewBox="-207.132 -206.774 472.175 472.727"><path d="M-207.132-206.774h472.175v472.727h-472.175z" style="fill:#f9f9f9"/><path d="M177.622-94.575a72.376 72.376 0 0 0-.539-7.094c-.891-6.535-2.984-13.535-6.25-20.551 4.656-2.379 7.867-7.203 7.867-12.801 0-7.93-6.445-14.367-14.398-14.367-3.641 0-6.953 1.375-9.5 3.598-7.172-7.719-15.938-14.598-26.172-19.824a14.002 14.002 0 0 0 1.43-6.215c0-7.93-6.438-14.367-14.375-14.367-7.07 0-12.93 5.102-14.164 11.824-10.234-1.617-21.359-1.656-33.328.383-1.492-6.336-7.188-11.078-13.984-11.078-7.984 0-14.391 6.422-14.391 14.367 0 1.641.273 3.215.766 4.695a186.65 186.65 0 0 0-3.125 1.297c-8.66 3.734-17.484 8.871-25.879 15.414a14.332 14.332 0 0 0-10.504-4.527c-7.941 0-14.414 6.418-14.414 14.344 0 4.039 1.688 7.672 4.375 10.273-7.09 8.672-13.406 18.672-18.512 30.016a14.503 14.503 0 0 0-5.855-1.227c-8.047 0-14.617 6.531-14.617 14.555 0 6.902 4.848 12.68 11.289 14.176-2.535 11.023-3.977 22.992-4.098 35.879h79.145c-.375-32.762 6.938-57.008 19.789-70.48 14.922-15.574 36.781-17.273 54.281-9.633 18.406 8.008 26.406 27.152 19.273 41.73-5.539 11.336-20.977 19.902-42.898 18.313 13.453 16.918 27.867 23.637 41.125 23.309a14.376 14.376 0 0 0 14.25 12.313c7.938 0 14.359-6.422 14.359-14.359 0-3.125-.984-6.016-2.703-8.375 7.031-5.922 12.781-14.055 16.578-23.391 1.078.246 2.195.383 3.313.383 7.977 0 14.406-6.426 14.406-14.344-.001-7.33-5.477-13.33-12.54-14.236" style="fill:#e8423f"/><path d="M-1.604-35.806c-.383-32.762 8.672-54.176 18.121-70.32 10.977-18.785 36.793-47.289 92.801-34.949 62.742 13.828 56.219 109.383-16.766 86.973" style="fill:none;stroke:#f9f9f9;stroke-width:3.54559993999999978;stroke-linecap:round;stroke-linejoin:round;stroke-opacity:1"/><path d="M-45.011 3.745c-.336 2.984-23.059 206.27-24.863 222.504l43.215-78.094S-4.011 238.28-.995 250.296c3-12.017 25.414-102.141 25.414-102.141s36.414 65.438 43.477 78.125C66.075 210.093 43.114 6.737 42.771 3.753H-45.01l-.001-.008z" style="fill:#e8423f"/><path d="M-.69 3.104V248.81" style="fill:none;stroke:#f9f9f9;stroke-width:3.54559993999999978;stroke-opacity:1"/><path d="M-68.749-37.493H70.356V4.499H-68.749z" style="fill:#e8423f"/><path d="M-68.733-37.493h139.09V4.499h-139.09z" style="fill:none;stroke:#f9f9f9;stroke-width:3.54559993999999978;stroke-opacity:1"/><path d="M-85.726-25.317H87.387v17.656H-85.726z" style="fill:#e8423f"/><path d="M-85.726-25.302H87.387v17.641H-85.726z" style="fill:none;stroke:#f9f9f9;stroke-width:3.54559993999999978;stroke-opacity:1"/></svg>