<svg xmlns="http://www.w3.org/2000/svg" xml:space="preserve" width="467.969" height="469.543" viewBox="-204.866 -205.348 467.969 469.543"><path d="M28.478-138.258h234.625v67.082H28.478zM28.478-4.105h234.625v67.082H28.478zM28.478 130.055h234.625v67.078H28.478z" style="fill:#fff"/><path d="M-204.866-205.348h467.969v469.543h-467.969z" style="fill:#f9f9f9"/><path d="M-186.315-136.684c0 21.738 10.059 47.387 38.395 48.121 5.254.145 18.43-.48 27.328-9.152 5.543-5.406 8.359-12.941 8.359-22.406 0-15.883-7.961-22.777-14.648-25.754-7.336-3.27-15.992-3.031-21.328-1.598 1.801-4.52 6.137-11.418 19.992-11.883 5.582-.184 13.609 1.25 20.113 9.168 8.168 9.93 15.527 31.977 4.238 80.57l-.512 2.168h57.832l.023-1.754c.719-50.719-9.488-87.176-30.367-108.359-16.863-17.105-35.886-18.941-43.288-18.941-65.375.008-66.137 59.223-66.137 59.82M-114.089-63.203h77.582v11.938h-77.582zM-114.089-30.289h77.582v11.934h-77.582zM-129.753-46.691h108.918v11.93h-108.918z" style="fill:#e8423f"/><path d="m-38.961-11.697 26.582 222.051-34.293-40.953-26.867 88.282-27.117-88.516-34.043 41.187 26.328-222.051z" style="fill:#e8423f" transform="translate(-1.776 -1.768)"/><path d="M28.478-205.332h234.625v67.074H28.478zM28.478-71.168h234.625v67.063H28.478zM28.478 62.977h234.625v67.078H28.478zM28.478 197.125h234.625v67.07H28.478z" style="fill:#e8423f"/></svg>