<svg xmlns="http://www.w3.org/2000/svg" xml:space="preserve" width="468.551" height="469.824" viewBox="-205.299 -205.34 468.551 469.824"><path d="m-203.34-203.083.266 468.722h467.129v-468.722h-467.129z" style="fill:#fff" transform="translate(-1.959 -2.257)"/><path d="m264.055 265.889.25-468.715h-467.114l-.265 468.715h467.379z" style="fill:#e8423f" transform="translate(-1.959 -2.257)"/><path d="M149.648-32.689v21.758h44.61v-24.672h-16.461v-19.656h16.461v-24.942h-44.61v21.758h-18.312v-21.758h-24.125v-19.105h24.125v-21.77h18.312v21.77h44.61v-24.688h-16.461V-143.626h16.461v-24.688h-44.61v21.488h-18.312v-21.488H90.742v21.488H64.727v114.137h26.015v21.758h40.594v-21.758z" style="fill:#fff" transform="translate(-1.959 -2.257)"/><path stroke-miterlimit="10" d="M64.727-32.689h26.015v21.758h40.594v-21.758h18.312v21.758h44.61v-24.672h-16.461v-19.656h16.461v-24.942h-44.61v21.758h-18.312v-21.758h-24.125v-19.105h24.125v-21.77h18.312v21.77h44.61v-24.688h-16.461V-143.626h16.461v-24.688h-44.61v21.488h-18.312v-21.488H90.742v21.488H64.727" style="fill:none;stroke:#040304;stroke-width:2.92000008;stroke-linecap:square;stroke-miterlimit:10" transform="translate(-1.959 -2.257)"/><path d="M-89.211-32.689v21.758h-44.855v-24.672h16.718v-19.656h-16.718v-24.942h44.855v21.758h18.305v-21.758h24.16v-19.105h-24.16v-21.77h-18.305v21.77h-44.855v-24.688h16.718V-143.626h-16.718v-24.688h44.855v21.488h18.305v-21.488h40.609v21.488h26.016v114.137h-26.016v21.758h-40.609v-21.758z" style="fill:#fff" transform="translate(-1.959 -2.257)"/><path stroke-miterlimit="10" d="M-4.281-32.689h-26.016v21.758h-40.609v-21.758h-18.305v21.758h-44.855v-24.672h16.718v-19.656h-16.718v-24.942h44.855v21.758h18.305v-21.758h24.16v-19.105h-24.16v-21.77h-18.305v21.77h-44.855v-24.688h16.718V-143.626h-16.718v-24.688h44.855v21.488h18.305v-21.488h40.609v21.488h26.016" style="fill:none;stroke:#040304;stroke-width:2.92000008;stroke-linecap:square;stroke-miterlimit:10" transform="translate(-1.959 -2.257)"/><path d="M35.539 51.983V54.1l.258 2.656.266 2.914v3.454l.257 3.453.547 3.718.258 3.446.523 3.461.547 2.898.782 3.211 1.312 2.906 1.625 2.125 1.578 1.86 1.844 1.593 2.133 1.063 2.133 1.062 2.117.782 2.125.531 1.867.797 2.375.531 2.922.266 3.453.257h3.977l4.257-.523 4.235-.805 4.25-1.304 4.25-1.86 3.984-2.39 3.711-2.922 2.133-1.328 2.64-1.328 2.922-1.313 3.453-1.078 3.454-1.328 3.445-.805 3.445-1.062 3.188-.524 3.172-.265 2.937-.266 6.359.531 6.118 1.328 5.851 2.125 5.297 3.188 4.508 3.453 3.976 4.25 3.204 4.781 2.375 5.297 1.593 5.836.532 5.852-.532 5.828-1.593 5.578-2.375 5.312-3.204 4.782-3.976 4.234-4.508 3.711-5.297 2.93-5.851 2.382-6.118 1.328-6.359.54-2.937-.266-3.172-.274-3.188-.804-3.445-.781-3.445-1.071-3.454-1.054-3.453-1.329-2.922-1.062-2.64-1.328-2.133-1.328-3.711-2.914-3.984-2.133-4.25-1.313-4.516-.539-4.508-.281-4.226.281-4 .789-3.453.797-2.657 1.328-2.109 1.071-3.453 3.445-2.375 3.719-1.344 3.984-.547 4.5.281 4.266.797 4.5 1.328 4.515 1.86 4.235 2.117 4.25 2.383 3.718.265 1.329.547 1.328.25 1.859.266 1.844v1.851l.273 1.883V193.983l.258 1.578v1.328l-.531 4.508-1.063 4.258-1.585 3.703-2.391 3.711-2.914 3.211-3.203 2.64-3.969 2.118-3.984 1.601-4.516 1.063-4.512.531-4.504-.531-4.511-1.063-3.985-1.601-3.984-2.118-3.176-2.64-2.91-3.211-2.41-3.711-1.574-3.703-1.075-4.258-.527-4.508v-1.328l.273-1.578V190.264l.254-1.883v-1.851l.274-1.844.265-1.859.536-1.328.261-1.329 2.379-3.718 2.117-4.25 1.883-4.235 1.309-4.515.793-4.5.273-4.266-.535-4.5-1.32-3.984-2.403-3.719-3.445-3.445-2.113-1.071-2.664-1.328-3.45-.797-3.976-.789-4.254-.281-4.504.281-4.512.539-4.242 1.313-3.992 2.133-3.711 2.914-2.129 1.328-2.648 1.328-2.918 1.062-3.449 1.329-3.446 1.054-3.457 1.071-3.449.781-3.191.804-3.176.274-2.93.266-6.367-.54-6.102-1.328-5.84-2.382-5.042-2.93-4.774-3.711-3.976-4.234-3.192-4.782-2.387-5.312-1.597-5.578-.528-5.828.528-5.852 1.597-5.836 2.387-5.297 3.192-4.781 3.976-4.25 4.774-3.453 5.042-3.188 5.84-2.125 6.102-1.328 6.367-.531 2.93.266 3.176.265 3.191.524 3.449 1.062 3.457.805 3.446 1.328 3.449 1.078 2.918 1.313 2.648 1.328 2.129 1.328 3.711 2.922 3.992 2.39 4.242 1.86 4.239 1.304 4.257.805 4.247.523h3.976l3.457-.257 2.91-.266 2.387-.531 1.863-.797 2.137-.531 2.102-1.063 2.129-1.047 2.128-1.062 2.122-1.594 1.863-1.867 1.59-2.117 1.328-2.641.785-2.937.535-2.922.266-3.172.543-2.922.257-2.93.262-2.914.266-2.906V50.381l.254-23.625V-188.49H-5.609V27.03l-.266 23.351V53.842l-.262 1.313V62.608l-.265 3.445-1.047 2.117-1.61 1.329-1.593.796-2.118.266-1.855-.266-1.867-.539-1.328-.523-1.055-.266-.254-.265-4-2.93-3.976-2.914-3.977-2.906-4.52-2.407-4.511-2.39-4.504-1.844-4.778-1.602-5.046-1.328-5.313-.523-5.312-.266-11.145.789-10.879 2.391-10.082 3.984-9.023 5.297-8.231 6.649-6.906 7.437-5.84 8.485-4.238 9.296-2.656 10.079-.801 10.625.801 10.609 2.656 9.82 4.238 9.555 5.84 8.476 6.906 7.446 8.231 6.64 9.023 5.297 10.082 3.985 10.879 2.39 11.145.797 5.312-.265 5.313-.532 5.046-.804 4.778-1.313 4.765-1.586 4.512-2.125 4.52-2.14 3.984-2.375 4.242-2.938 3.719-2.906 1.32.797-2.129 2.922-1.847 2.906-1.598 3.187-1.328 3.203-1.051 3.43-1.062 3.461-.801 3.438-.535 3.468-.266 3.703v3.719l.801 9.016 2.129 8.781 3.449 7.953 4.504 7.156 5.848 6.633 6.632 5.586 7.43 4.5 8.223 3.195 8.761 2.133 9.29.782 9.3-.782 8.735-2.133 8.242-3.195 7.43-4.5 6.64-5.586 5.563-6.633 4.797-7.156 3.437-7.953 2.125-8.781.781-9.016v-3.719l-.515-3.703-.516-3.468-.547-3.438-1.078-3.461-1.031-3.43-1.344-3.203-1.594-3.187-1.851-2.906-2.133-2.922 1.328-.797 3.719 2.906 3.984 2.938 4.235 2.375 4.523 2.14 4.492 2.125 4.531 1.586 5.063 1.313 5.031.804 5.031.532 5.313.265 11.406-.797 10.891-2.39 9.82-3.985 9.274-5.297 8.25-6.64 6.882-7.446 5.579-8.476 4.242-9.555 2.672-9.82 1.046-10.609-1.046-10.625-2.672-10.079-4.242-9.296-5.579-8.485-6.882-7.437-8.25-6.649-9.274-5.297-9.82-3.984-10.891-2.391-11.406-.789-5.031.266-5.055.523-4.773 1.328-4.516 1.602-4.25 1.844-4.242 2.39-3.977 2.407-3.992 2.906-3.711 2.914-3.719 2.93-.523.265-1.063.266-1.328.523-1.851.274-2.125.265-1.86-.265-1.867-.797-1.586-1.328-1.062-2.133-.266-3.164V50.381l.266-23.351h-.266l.266-215.52H35.797V27.03l-.258 23.351z" style="fill:#fff" transform="translate(-1.959 -2.257)"/><path stroke-miterlimit="10" d="m65.789 27.03.266-215.52H35.797V27.03l-.258 23.351V54.1l.258 2.656.266 2.914v3.454l.257 3.453.547 3.718.258 3.446.523 3.461.547 2.898.782 3.211 1.312 2.906 1.625 2.125 1.578 1.86 1.844 1.593 2.133 1.063 2.133 1.062 2.117.782 2.125.531 1.867.797 2.375.531 2.922.266 3.453.257h3.977l4.257-.523 4.235-.805 4.25-1.304 4.25-1.86 3.984-2.39 3.711-2.922 2.133-1.328 2.64-1.328 2.922-1.313 3.453-1.078 3.454-1.328 3.445-.805 3.445-1.062 3.188-.524 3.172-.265 2.937-.266 6.359.531 6.118 1.328 5.851 2.125 5.297 3.188 4.508 3.453 3.976 4.25 3.204 4.781 2.375 5.297 1.593 5.836.532 5.852-.532 5.828-1.593 5.578-2.375 5.312-3.204 4.782-3.976 4.234-4.508 3.711-5.297 2.93-5.851 2.382-6.118 1.328-6.359.54-2.937-.266-3.172-.274-3.188-.804-3.445-.781-3.445-1.071-3.454-1.054-3.453-1.329-2.922-1.062-2.64-1.328-2.133-1.328-3.711-2.914-3.984-2.133-4.25-1.313-4.516-.539-4.508-.281-4.226.281-4 .789-3.453.797-2.657 1.328-2.109 1.071-3.453 3.445-2.375 3.719-1.344 3.984-.547 4.5.281 4.266.797 4.5 1.328 4.515 1.86 4.235 2.117 4.25 2.383 3.718.265 1.329.547 1.328.25 1.859.266 1.844v1.851l.273 1.883V193.983l.258 1.578v1.328l-.531 4.508-1.063 4.258-1.585 3.703-2.391 3.711-2.914 3.211-3.203 2.64-3.969 2.118-3.984 1.601-4.516 1.063-4.512.531-4.504-.531-4.511-1.063-3.985-1.601-3.984-2.118-3.176-2.64-2.91-3.211-2.41-3.711-1.574-3.703-1.075-4.258-.527-4.508v-1.328l.273-1.578V190.264l.254-1.883v-1.851l.274-1.844.265-1.859.536-1.328.261-1.329 2.379-3.718 2.117-4.25 1.883-4.235 1.309-4.515.793-4.5.273-4.266-.535-4.5-1.32-3.984-2.403-3.719-3.445-3.445-2.113-1.071-2.664-1.328-3.45-.797-3.976-.789-4.254-.281-4.504.281-4.512.539-4.242 1.313-3.992 2.133-3.711 2.914-2.129 1.328-2.648 1.328-2.918 1.062-3.449 1.329-3.446 1.054-3.457 1.071-3.449.781-3.191.804-3.176.274-2.93.266-6.367-.54-6.102-1.328-5.84-2.382-5.042-2.93-4.774-3.711-3.976-4.234-3.192-4.782-2.387-5.312-1.597-5.578-.528-5.828.528-5.852 1.597-5.836 2.387-5.297 3.192-4.781 3.976-4.25 4.774-3.453 5.042-3.188 5.84-2.125 6.102-1.328 6.367-.531 2.93.266 3.176.265 3.191.524 3.449 1.062 3.457.805 3.446 1.328 3.449 1.078 2.918 1.313 2.648 1.328 2.129 1.328 3.711 2.922 3.992 2.39 4.242 1.86 4.239 1.304 4.257.805 4.247.523h3.976l3.457-.257 2.91-.266 2.387-.531 1.863-.797 2.137-.531 2.102-1.063 2.129-1.047 2.128-1.062 2.122-1.594 1.863-1.867 1.59-2.117 1.328-2.641.785-2.937.535-2.922.266-3.172.543-2.922.257-2.93.262-2.914.266-2.906V50.381l.254-23.625V-188.49H-5.609V27.03l-.266 23.351V53.842l-.262 1.313V62.608l-.265 3.445-1.047 2.117-1.61 1.329-1.593.796-2.118.266-1.855-.266-1.867-.539-1.328-.523-1.055-.266-.254-.265-4-2.93-3.976-2.914-3.977-2.906-4.52-2.407-4.511-2.39-4.504-1.844-4.778-1.602-5.046-1.328-5.313-.523-5.312-.266-11.145.789-10.879 2.391-10.082 3.984-9.023 5.297-8.231 6.649-6.906 7.437-5.84 8.485-4.238 9.296-2.656 10.079-.801 10.625.801 10.609 2.656 9.82 4.238 9.555 5.84 8.476 6.906 7.446 8.231 6.64 9.023 5.297 10.082 3.985 10.879 2.39 11.145.797 5.312-.265 5.313-.532 5.046-.804 4.778-1.313 4.765-1.586 4.512-2.125 4.52-2.14 3.984-2.375 4.242-2.938 3.719-2.906 1.32.797-2.129 2.922-1.847 2.906-1.598 3.187-1.328 3.203-1.051 3.43-1.062 3.461-.801 3.438-.535 3.468-.266 3.703v3.719l.801 9.016 2.129 8.781 3.449 7.953 4.504 7.156 5.848 6.633 6.632 5.586 7.43 4.5 8.223 3.195 8.761 2.133 9.29.782 9.3-.782 8.735-2.133 8.242-3.195 7.43-4.5 6.64-5.586 5.563-6.633 4.797-7.156 3.437-7.953 2.125-8.781.781-9.016v-3.719l-.515-3.703-.516-3.468-.547-3.438-1.078-3.461-1.031-3.43-1.344-3.203-1.594-3.187-1.851-2.906-2.133-2.922 1.328-.797 3.719 2.906 3.984 2.938 4.235 2.375 4.523 2.14 4.492 2.125 4.531 1.586 5.063 1.313 5.031.804 5.031.532 5.313.265 11.406-.797 10.891-2.39 9.82-3.985 9.274-5.297 8.25-6.64 6.882-7.446 5.579-8.476 4.242-9.555 2.672-9.82 1.046-10.609-1.046-10.625-2.672-10.079-4.242-9.296-5.579-8.485-6.882-7.437-8.25-6.649-9.274-5.297-9.82-3.984-10.891-2.391-11.406-.789-5.031.266-5.055.523-4.773 1.328-4.516 1.602-4.25 1.844-4.242 2.39-3.977 2.407-3.992 2.906-3.711 2.914-3.719 2.93-.523.265-1.063.266-1.328.523-1.851.274-2.125.265-1.86-.265-1.867-.797-1.586-1.328-1.062-2.133-.266-3.164V50.381l.266-23.351" style="fill:none;stroke:#040304;stroke-width:2.92000008;stroke-linecap:square;stroke-miterlimit:10" transform="translate(-1.959 -2.257)"/><path d="m80.914 32.342 1.047-1.328.547-1.328.781-1.602.297-1.589v-3.442l-.297-1.605-.781-1.594-.547-1.328-1.047-1.313-1.07-1.062-1.305-.793-1.328-.535-1.328-.531h-91.047l-1.59.531-1.328.535-1.313.793-1.062 1.062-.809 1.313-.8 1.328-.793 1.594-.27 1.605v3.442l.27 1.589.793 1.602.8 1.328.809 1.328 1.062 1.055 1.313.805 1.328.523 1.59.524h89.437-.281 1.891l1.328-.524 1.328-.523 1.305-.805z" style="fill:#fff" transform="translate(-1.959 -2.257)"/><path stroke-miterlimit="10" d="M73.992 35.249h1.891l1.328-.524 1.328-.523 1.305-.805 1.07-1.055 1.047-1.328.547-1.328.781-1.602.297-1.589v-3.442l-.297-1.605-.781-1.594-.547-1.328-1.047-1.313-1.07-1.062-1.305-.793-1.328-.535-1.328-.531h-91.047l-1.59.531-1.328.535-1.313.793-1.062 1.062-.809 1.313-.8 1.328-.793 1.594-.27 1.605v3.442l.27 1.589.793 1.602.8 1.328.809 1.328 1.062 1.055 1.313.805 1.328.523 1.59.524h89.437" style="fill:none;stroke:#040304;stroke-width:2.92000008;stroke-linecap:square;stroke-miterlimit:10" transform="translate(-1.959 -2.257)"/><path d="M-203.834-204.165h467.086v468.649h-467.086z" style="fill:#e8423f"/><path d="M149.648-32.689v21.758h44.61v-24.672h-16.461v-19.656h16.461v-24.942h-44.61v21.758h-18.312v-21.758h-24.125v-19.105h24.125v-21.77h18.312v21.77h44.61v-24.688h-16.461v-19.632h16.461v-24.688h-44.61v21.488h-18.312v-21.488H90.742v21.488H64.727v114.137h26.015v21.758h40.594v-21.758zM-89.473-32.689v21.758h-44.586v-24.672h16.457v-19.656h-16.457v-24.942h44.586v21.758h18.317v-21.758h24.152v-19.105h-24.152v-21.77h-18.317v21.77h-44.586v-24.688h16.457v-19.632h-16.457v-24.688h44.586v21.488h18.317v-21.488h40.609v21.488h26v114.137h-26v21.758h-40.609v-21.758z" style="fill:#f9f9f9" transform="translate(-1.959 -2.257)"/><path d="m31.967-192.395.23 262.715c0 .281.344 27.078 27.664 27.078 14.633 0 21.156-4.828 27.469-9.5 6.719-4.969 13.656-10.117 31.43-10.117 6.367-.063 21.438.82 31.367 10.625 6.406 6.328 9.648 15.328 9.648 26.75 0 10.445-6.898 20.688-17.992 26.773-14.633 8-32.242 7.094-47.094-2.43l-3.555-2.391c-8.461-5.82-20.023-13.773-33.789-6.898-8.406 4.18-13.141 11.094-13.141 19.094 0 .453.016.891.047 1.328.016 5.344 1.766 8.375 3.797 11.867 2.938 5.07 6.578 11.383 6.578 28.219 0 10.164-3.117 27.477-23.957 29.344-.406.047-2.496.148-2.496.148l-2.008-.102c-21.23-1.898-24.344-19.211-24.344-29.391 0-16.836 3.648-23.164 6.586-28.219 2.023-3.508 3.773-6.523 3.773-11.719.031-.477.051-.898.051-1.375 0-8.117-4.73-15.016-13.137-19.195-13.785-6.859-25.352 1.094-33.809 6.914l-3.52 2.375c-14.855 9.508-32.465 10.43-47.09 2.43-11.102-6.063-18-16.328-18-26.773 0-11.422 3.25-20.422 9.648-26.75 9.93-9.82 24.992-10.688 31.008-10.625 18.129 0 25.074 5.148 31.785 10.117 6.305 4.672 12.824 9.5 27.457 9.5 27.32 0 27.672-26.797 27.672-27.078l.215-262.715H-9.354V56.843c0 4.328-1.168 7.328-3.223 8.25-2.457 1.078-6.242-.508-10.496-4.281-11.504-10.375-30.922-15.031-45.051-15.031-14.246 0-67.438 11.734-67.438 69.148 0 30.836 23.152 64.031 73.969 64.031 14.469 0 29.07-7.047 37.68-12.836-3.809 7.297-6.426 15.508-6.426 24.555 0 7.906 1.504 16.133 4.586 23.922 8.32 21.078 25.613 34.625 47.445 37.188 1.016.096 1.625.156 1.625.156 1.031.104 1.895.164 1.895.164.777.03 1.648.102 1.648.102 1.305.018 2.707.049 2.707.049l1.277-.148 1.25-.063 1.641-.164c22.844-2.656 40.133-16.203 48.461-37.298 3.07-7.781 4.578-16 4.578-23.906 0-9.063-2.617-17.258-6.43-24.555 8.609 5.789 23.211 12.836 37.672 12.836 50.828 0 73.969-33.188 73.969-64.031 0-57.414-53.195-69.148-67.445-69.148-14.125 0-33.523 4.656-45.047 15.031-4.227 3.805-8.047 5.359-10.492 4.281-2.063-.922-3.227-3.922-3.227-8.25v-249.238l-33.807-.002z" style="fill:#f9f9f9"/><path d="M81.846 22.445c0 5.801-4.711 10.5-10.5 10.5h-86.043c-5.809 0-10.512-4.699-10.512-10.5 0-5.816 4.711-10.512 10.512-10.512h86.043c5.789-.008 10.5 4.695 10.5 10.512" style="fill:#f9f9f9"/></svg>