<svg xmlns="http://www.w3.org/2000/svg" xml:space="preserve" width="469.773" height="471.368" viewBox="-205.975 -206.297 469.773 471.368"><path d="M-205.975-206.297h469.773v471.368h-469.773z" style="fill:#16a74e"/><path d="m42.767-161.902-.25 20.679M12.552-168.312v29.242" style="fill:none"/><path d="M37.923 246.445c0 5.836-4.594 10.625-10.27 10.625-5.652 0-10.262-4.789-10.262-10.625v-433.911c0-5.863 4.609-10.613 10.262-10.613 5.676 0 10.27 4.75 10.27 10.613v433.911z" style="fill:#f9f9f9"/><path stroke-miterlimit="10" d="M37.923 246.445c0 5.836-4.594 10.625-10.27 10.625-5.652 0-10.262-4.789-10.262-10.625v-433.911c0-5.863 4.609-10.613 10.262-10.613 5.676 0 10.27 4.75 10.27 10.613v433.911z" style="fill:none;stroke:#1a1a1a;stroke-width:3.55200005000000019;stroke-miterlimit:10;stroke-opacity:1"/><path d="M-29.057-199.238c8.93 17.191 34.258 29.543 41.602 30.797 7.344 1.258 30.129 6.465 30.129 6.465l11.656 9.762-11.876 11.038s-26.016 2.137-29.75 2.137c-3.609 1.086-23.754 5.633-41.281 27.344-2.52-3.582-13.625-14.215-13.625-45.488 0-25.168 11.442-39.864 13.145-42.055" style="fill:#f9f9f9"/><path stroke-miterlimit="10" d="M-29.057-199.238c8.93 17.191 34.258 29.543 41.602 30.797 7.344 1.258 30.129 6.465 30.129 6.465l11.656 9.762-11.876 11.038s-26.016 2.137-29.75 2.137c-3.609 1.086-23.754 5.633-41.281 27.344-2.52-3.582-13.625-14.215-13.625-45.488 0-25.168 11.442-39.864 13.145-42.055z" style="fill:none;stroke:#1a1a1a;stroke-width:3.55200005000000019;stroke-miterlimit:10;stroke-opacity:1"/><path d="m42.767-161.902-.25 20.679" style="fill:none"/><path stroke-miterlimit="10" d="m42.767-161.902-.25 20.679" style="fill:none;stroke:#1a1a1a;stroke-width:3.55200005000000019;stroke-miterlimit:10;stroke-opacity:1"/><path d="M12.552-168.312v29.242" style="fill:none"/><path stroke-miterlimit="10" d="M12.552-168.312v29.242" style="fill:none;stroke:#1a1a1a;stroke-width:3.55200005000000019;stroke-miterlimit:10;stroke-opacity:1"/><path d="M40.814 201.586c0 5.766-5.938 10.438-13.199 10.438s-13.16-4.672-13.16-10.438V-96.047c0-5.785 5.891-10.449 13.16-10.449 7.277 0 13.199 4.664 13.199 10.449v297.633z" style="fill:#f9f9f9"/><path stroke-miterlimit="10" d="M40.814 201.586c0 5.766-5.938 10.438-13.199 10.438s-13.16-4.672-13.16-10.438V-96.047c0-5.785 5.891-10.449 13.16-10.449 7.277 0 13.199 4.664 13.199 10.449v297.633z" style="fill:none;stroke:#1a1a1a;stroke-width:2.78399991999999985;stroke-miterlimit:10;stroke-opacity:1"/><path d="M-10.378 201.586c0 5.766-4.559 10.438-10.23 10.438-5.648 0-10.215-4.672-10.215-10.438V-96.047c0-5.785 4.574-10.449 10.215-10.449 5.672 0 10.23 4.664 10.23 10.449v297.633z" style="fill:#f9f9f9"/><path stroke-miterlimit="10" d="M-10.378 201.586c0 5.766-4.559 10.438-10.23 10.438-5.648 0-10.215-4.672-10.215-10.438V-96.047c0-5.785 4.574-10.449 10.215-10.449 5.672 0 10.23 4.664 10.23 10.449v297.633z" style="fill:none;stroke:#1a1a1a;stroke-width:3.55200005000000019;stroke-miterlimit:10;stroke-opacity:1"/><path d="M85.986 201.586c0 5.766-4.563 10.438-10.203 10.438s-10.188-4.672-10.188-10.438V-96.047c0-5.785 4.547-10.449 10.188-10.449 5.641 0 10.203 4.664 10.203 10.449v297.633z" style="fill:#f9f9f9"/><path stroke-miterlimit="10" d="M85.986 201.586c0 5.766-4.563 10.438-10.203 10.438s-10.188-4.672-10.188-10.438V-96.047c0-5.785 4.547-10.449 10.188-10.449 5.641 0 10.203 4.664 10.203 10.449v297.633z" style="fill:none;stroke:#1a1a1a;stroke-width:3.55200005000000019;stroke-miterlimit:10;stroke-opacity:1"/><path d="M65.595 201.586c0 5.766-5.625 10.438-12.563 10.438-6.875 0-12.516-4.672-12.516-10.438V-96.047c0-5.785 5.641-10.449 12.516-10.449 6.938 0 12.563 4.664 12.563 10.449v297.633z" style="fill:#f9f9f9"/><path stroke-miterlimit="10" d="M65.595 201.586c0 5.766-5.625 10.438-12.563 10.438-6.875 0-12.516-4.672-12.516-10.438V-96.047c0-5.785 5.641-10.449 12.516-10.449 6.938 0 12.563 4.664 12.563 10.449v297.633z" style="fill:none;stroke:#1a1a1a;stroke-width:3.55200005000000019;stroke-miterlimit:10;stroke-opacity:1"/><path d="M14.704 201.586c0 5.766-5.656 10.438-12.641 10.438-6.969 0-12.625-4.672-12.625-10.438V-96.047c0-5.785 5.656-10.449 12.625-10.449 6.984 0 12.641 4.664 12.641 10.449v297.633z" style="fill:#f9f9f9"/><path stroke-miterlimit="10" d="M14.704 201.586c0 5.766-5.656 10.438-12.641 10.438-6.969 0-12.625-4.672-12.625-10.438V-96.047c0-5.785 5.656-10.449 12.625-10.449 6.984 0 12.641 4.664 12.641 10.449v297.633z" style="fill:none;stroke:#1a1a1a;stroke-width:3.55200005000000019;stroke-miterlimit:10;stroke-opacity:1"/><path d="M-36.792-81.465H92.126v22.953H-36.792z" style="fill:#4ab05f"/><path d="M-36.792 162.477H92.126v22.953H-36.792z" style="fill:#16a74e"/><path d="M93.902 2.354-34.984 154.542v-43.047L93.902-40.666z" style="fill:#16a74e" transform="translate(-1.776 -1.768)"/><path d="M93.902 2.354-34.984 154.542v-43.047L93.902-40.666z" style="fill:none;stroke:#1a1a1a;stroke-width:3.55200005000000019;stroke-opacity:1" transform="translate(-1.776 -1.768)"/><path d="M-36.792-81.465H92.126v22.953H-36.792z" style="fill:#16a74e"/><path d="M-36.792-81.465H92.126v22.953H-36.792z" style="fill:none;stroke:#1a1a1a;stroke-width:3.55200005000000019;stroke-opacity:1"/><path stroke-miterlimit="10" d="M-36.792 162.492H92.126v22.938H-36.792z" style="fill:none;stroke:#1a1a1a;stroke-width:2.78399991999999985;stroke-miterlimit:10;stroke-opacity:1"/><path d="M-34.984 2.354 93.902 154.542v-43.047L-34.984-40.666z" style="fill:#16a74e" transform="translate(-1.776 -1.768)"/><path d="M-34.984 2.354 93.902 154.542v-43.047L-34.984-40.666z" style="fill:none;stroke:#1a1a1a;stroke-width:3.55200005000000019;stroke-opacity:1" transform="translate(-1.776 -1.768)"/></svg>