<svg xmlns="http://www.w3.org/2000/svg" xml:space="preserve" width="469.879" height="471.43" viewBox="-205.796 -206.414 469.879 471.43"><path d="M265.859-204.638v471.43l-469.879-471.43z" style="fill:#f9f9f9" transform="translate(-1.776 -1.776)"/><path d="m-204.02-204.638 469.879 471.43H-204.02z" style="fill:#16a74e" transform="translate(-1.776 -1.776)"/><path d="M180.74 129.93s-.547-3.555.563-5.344c1.102-1.781 1.438-6.555 1.219-8.016-.234-1.438.547-1.883-7.234-2.883 6.563-3.117 17.922.797 20.25 2.469 2.344 1.656 4.227 13.125 7.344 14.906-1.219 2.781-6.789 2.219-6.789 2.219l-15.353-3.351z" style="fill:#ffd730"/><path d="M-81.878-28.133c-1.215-.457-6.305-1.559-7.605.672-7.348 12.512 4.672 40.281 15.965 45.816 6.09 2.969 6.168.855 6.152.199-.168-7.855-22.558-31.695-14.512-46.687" style="fill:#e8423f"/><path d="M-4.717 134.359c-20.215 2.852-51.816 23.078-51.816 23.078s-14.848 9.797-15.32 20.391c-.48 10.563 4.898 12.953 4.898 12.953s14.055 12 10.422 20.516c-9.949 6.484-28.934 9.836-35.543 5.211-6.793-4.742-.633-11.523-2.055-16.102-3.008-9.703-12.043-11.242-14.539-9.031-1.574 1.445 5.441 3.25 3.953 8.531-1.734 6.172-9.473.094-15-.688-5.535-.781-8.855 4.328-8.855 4.328s5.215-.156 6.641.484c1.422.625 3.16 5.203 1.262 7.25-2.895 3.156-13.43 2.063-16.27 12.328 4.262-3.156 6.727-2.391 7.262-2.203 4.273 1.43.633 8.688 10.586 10.25-6 2.234-7.922 3.063-9.16 3.953 6.641-1.422 7.113 6.188 12.168 6.484 5.055.313 8.336-1.344 9.313-.945 44.551 18.305 93.047-23.219 95.406-28.594.578-1.297-9-6.625-11.207-8.836-1.258-1.266-3.633-10.117-3.48-10.672 2.383-8.578.641-10.344 1.434-11.445 3.781-5.289 40.137-15 40.137-15S-.756 140.687-4.717 134.359" style="fill:#ffd730"/><path d="M-31.932 68.312a2.898 2.898 0 0 1-.016-.297l-.008.031c.008.11.016.196.024.266m0 0c.008.204.015.204 0 0m153.359 81.36c-11.961-17.563-37-31.148-49.977-35.844-15.68-11.859-18.93-11.875-23.602-15.25 2.235-15.375-10.624-34.031-10.624-34.031s-5.98-6.859-19.262-6.922c3.504 2.734 17.559 13.984 13.918 16.688C15.869 46.375-7.35 55.672-7.35 55.672s9.547 1.805 12.137 7.477c2.609 5.688 12.383 27.453 22.969 37.523 3.375 3.219 10.266 8.375 19.094 11.508 21.602 7.656 52.594 26.602 59.141 35.102 3.391 4.406 5.594 10.484 5.484 12.672-.094 2.195-2.391 4.195-5.578 3.797-4.094-.508-52.594-31.844-52.594-31.844s-10.477-7.578-31.715-12.797C7.708 100.281-33.014 81.031-41.62 73.937a9.814 9.814 0 0 0-.191.234c4.551-5.469 7.992-11.375 10.469-16.609-.703 5.578-.637 9.25-.582 10.469.078-2 21.168-23.406 17.168-33.18C.51 28.804-1.412 27.081-2.131 21.242c-.563.199-1.699.129-3.129-.016 1.039.066 2.078.098 3.129.016-.016-7.832-19.168-11.918-18.657-12.949.52-1.035 6.215 1.5 7.391.391.457-.426-24.016-29.473-29.574-28.688-2.145.688-3.273 2.641-5.672 1.297-2.41-1.344-8.121-7.098-10.344-7.473.125.816-2.586 2.934-2.586 2.934s-3.273 1.113-5.91 3c-2.648 1.891-2.465 8.297.148 10.922.152.145-2.215 6.871-2.215 6.871s4.098-5.504 4.816-5.504c.727 0 8.297 4.801 8.609 9.25.582 8.094-13.336 20.422-13.848 20.5-2.848.441-8.32-9.828-9.68-10.527-.531-.262-2.664-2.277-5.488 8.098-.219.801.582 2.559 1.992 4.84-.008-.016-.02-.016-.02-.016s-11.359-7.902-22.664-8.887c1.898.125 3.633.422 4.945.832-3.934-8.266-11.832-39.922-8.047-56.84 25.617-9.691 22.945-13.738 22.672-18.602 3.848-4.785-2.09-10.512-2.09-10.512l-2.285 6.434s-2.594 1.729-5.785-.539c-3.191-2.262-1.129-10.855-2.496-15.719-1.367-4.848-6.863-9.824-6.863-9.824s1.254 3.855 1.488 5.008c.23 1.137-.504 3.398-5.008 3.152-4.504-.258-4.336-4.984-6.855-7.234-2.523-2.246-7.609-3.52-7.609-3.52s3.406 7.402 2.598 8.531c-2.293.207-5.191 6.855-7.047 7.422-1.848.543-7.246-7.918-11.496-2.23 5.25-.609 5.746 2.262 5.832 3.254.336 3.609-8.48 17.465-1.566 21.594-6.664 15.43.191 24.656.191 24.656s-5.152 25.656-5.754 55.641c.746.504 1.355 1.191 1.832 1.895l-.008-.016c-15.984-13.832-25.863-56.344-24.992-61.578.457-2.75 1.082-3.766 1.082-3.766s2.047.281 4.176-.281c2.121-.559 2.777-1.109 2.777-1.109s6.031-.547 7.621-1.051c1.602-.504 7.387-11.574 4.336-18.984-.84 1.816-1.965 6.051-4.445 6.672-2.48.641-2.184-1.664-6.074-3.254 1.199-11.57-10.055-23.992-10.055-23.992s3.77 7.719 1.273 9.129c-2.496 1.398-6.785 2.695-6.785 2.695l-1.305 13.391c.199-2.801.406-6.941.406-12.398-1.535-3.488-4.789-9.379-9.078-14.273 1.992 3.199 4.383 8.785-.703 16.074.184.469.551 1.543 3.551 8.086-3.406-5.984-15.727-13.68-15.727-13.68s3.094 11.777-3.066 18.52c4.371 1.938 1.273 40.656 12.25 42.641 2.801 5.801 5.887 75.242 20.457 93.703 1.824.086 16.238-.078 16.238-.078l-2.77.672s18.73 20.82 25.578 26.047c9.449 7.18 49.863 13.773 77.504 16.57 27.641 2.789 41.313 12.859 42.199 11.477.504-1.094-4.614-3.056-3.239-3.44 2.895-.827 14.848 32.244 26.208 41.838 11.359 9.578 38.348 12.328 40.051 21.406 1.344 7.148-2.703 25.969-13.898 24.492-1.68-.211-6.609-17.984-9.43-19.258-2.828-1.297-10.316-2.875-16.973.828 1.137.352 7.953 1.922 10.609 2.531 2.313 2.375-1.656 7.125-3.047 7.625-3.168 1.141-5.672.375-8.137.906-6.719 1.438-10.848 10.703-10.848 10.703s12.246.375 12.766 6.969c6.578-3.703 8.672-6.594 13.27-3.797-14.867 3.391-16.066 6.969-18.586 17.453 5.613-2.984 8.941-5.453 10.598-4.328 1.656 1.141 3.609 2.453 6.137 1.5.465-.164 1.031-.438 1.672-.75-1.25.828-2.25 1.608-2.504 2.155-.809 1.742.313 10.017 1.391 11.117.496-1.117 1.684-5.298 4.496-5.392 2.797-.117 12.234 1.603 13.594-.461 1.367-2.047-.992.172 1.969-3.233 2.953-3.438 14.805-8.556 17.781-10.647 3.484-7.023 29.719-35.656 28.469-54.656-17.82-3.297-17.484-7.086-19.555-10.164-12.281-2.836-29.883-29.453-33.211-34.406 4.836 5.047 48.586 33.109 59.617 36.359 13.385 3.936 27.463-10.142 16.963-25.595M-10.131 20.715c-2.824-.199-5.738-.146-7.609.922 2.198-1.25 4.808-1.188 7.609-.922M-66.167 90.57" style="fill:#ffd730"/><path d="M-19.116 146.047s15.941 8 21.703 7.781c-1.047-2.844-4.121-9.047-4.121-9.047s-6.137-3.523-17.582 1.266" style="fill:#e8423f"/><path d="M171.537 9.187c-2.453-1.313-27.148-5.441-39.453-3.527-12.305 1.918-14.516 14.23-15.32 19.84-.805 5.605.883 14.359-16.727 11.141-7.469-1.359-17.023-10.699-16.93-15.508.102-6.691 8.281-9.396 8.477-14.578.063-1.543.156-14.512-9.797-14.512-.828 2.77 3.656 10.098-2.422 10.754-5.859.637-10.734-7.832-15.781-11.02-3.836-2.438-8.984-.719-8.984-.719l6.703 4.234s-.164 5.719-2.656 7.047c-4.72 2.505-14.392-5.687-23.243 4.048 5.727-.734 7.406.871 8.984 1.234 1.703 4.246-2.148 11.855 4.586 14.797-1.391-.184-10.891-.832-10.734-.504 5.688 1.906 4.773 7 4.773 7s2.18 6.938 12.469 8.297c16.18 22.164 59.727 39.391 88.234 37.836-.414-22.688 6.984-29.031 20.422-31.344 1.086-5.117 7.18-33.445 7.399-34.516M-53.174-148.926c-.309 1.09-3.504 11.824 2.832 22.555.121-.297-.063-1.984-.063-1.984s3.984-2.832 5.551-5.977c.738-1.48 6.09-3.555 9.113-7.234 3.063-4.551.602-14.293-5.375-19.598.367 4.641 1.512 7.414.719 8.254-3.184 3.449-12.481 2.906-12.777 3.984" style="fill:#ffd730"/><path d="M80.224-177.531c-1.406-.184-7.086-.012-7.883 2.902-4.508 16.434 15.508 44.832 28.914 47.969 7.219 1.688 6.766-.754 6.57-1.504-2.242-8.953-32.195-29.938-27.601-49.367M138.568 14.09c9.242-.047 20.375.395 23.141 4.906.031 1.887.68 6.109.984 9.109-4.571-.636-24.125-12.984-24.125-14.015" style="fill:#e8423f"/><path d="M252.912 27.012c-.953-9.184-10.656-33.344-34.344-69.527-16.719-25.543-18.117-38.656-15.031-49.871 15.375-2.242 35.625-23.059 35.063-35.664-.547-12.609-8.164-19.02-8.164-19.02s-4.336 27.219-9.992 25.664c1.945-2.773 7.797-11.512 7.898-23.824.094-12.301-17.328-23.207-19.805-23.383 1.625 2.25 8.422 9.32 6.688 14.801-1.742 5.465-6.313 11.734-12.539 19.918-6.305 8.266-14.445 21.914-15.43 34.938-.984 12.938 6.141 28.367 9.359 37.711 3.43 9.898 26.742 47.633 26.742 47.633s27.883 42.047 18.454 49.816c-2.867 2.375-15.022 1.672-21.819-7.785-6.359-8.855-5.5-8.488-10.961-16.688C201.289.141 196.437.965 196.109-.437c-24.914-41.887-59.734-65.191-64.867-68.246 0 0 8.031-7.875 10.469-16.594-.141 3.063-.766 10.855-.766 10.855s22.469-25.223 19.867-38.359c29.055-2.598 18.344-16.504 15.891-17.879.164-1.656-16.602-8.809-16.602-10.383 0 0 .391-.234.945-.473 5.508 1.656 6.836 1.336 6.766.473-.078-.859-22.867-26.648-32.383-28.457-3.156 2.191-3.703.941-5.766 1.336-3.141.473-10.914-9.754-14.844-9.984-.398 1.566-4.023 3.457-4.023 3.457s-7.852 2.359-9.43 5.27c-1.57 2.906 1.328 9.746 1.328 9.746l-1.25 6.527s4.156-5.191 4.391-5.586c2.125 3.152 8.898 2.832 10.555 11.875 1.641 9.039-5.281 12.031-7.945 17.453-2.672 5.426-5.422 3.457-7.711 3.066-3.367-.578-11.242-8.488-11.555-8.488-3.547 0-5.422 9.27-5.344 10.527 1.016-.391 1.484 3.383 2.469 3.863.477.223 1.156.641 1.859 1.129-12.219-8.168-32.344-6.129-32.203-5.551.156.613 5.508 2.75 5.203 4.125-.234.977-9.547-1.406-22.086 3.02.148-.059.281-.113.414-.152 0 0-22.215-23.051-16.277-39.496 7.488-1.707 13.434-1.051 17.863-2.785 7.391-2.871 10.898-11.535 10.773-15.609-7.219 7.863-9.398 5.848-10.594 5.305-4.469-2 .391-13.559 0-17.688-.422-4.137-5.844-9.023-5.844-9.023s1.688 6.137-7.242 9.023c-4.199 1.352-7.68-4.832-10.605-7.434-2.953-2.598-8.504-3.008-8.504-3.008s4.445 6.73 3.168 8.496c-2.871.074-5.52 4.785-9.359 5.656-3.839.871-7.594-7.771-14.16-2.121 4.902-.484 5.336.938 5.832 1.77 2.293 3.73-1.25 4.855-2.793 19.465-.664 6.375-.105 13.121.566 18.656 1.531 12.535 10.891 26.809 16.203 55.809a.486.486 0 0 0 .125.063c-19.688-8.105-41.664-13.648-53.07-25.07-11.863-11.863-10.266-30.25-8.746-33.027 0-.965-7.941-12.98-23.023-14.836 7.953 6.477 6.938 4.438 1.113 13.734 3.879 4.328 5.984 8.609 7.105 11.68-1.098-2.297-3.145-5.543-6.977-10.016-4.043-1.258-10.578-1.488-18.992.711 11.23 1.922 9.063 14.801 9.063 14.801s2.879 1.945 8.602 4.902c-6.273-2.695-25.297 1.289-25.297 1.289s15.391 1.328 14.008 10.906c7.77 5.133 16.785 15.535 20.816 17.719 1.543.945.832 1.703 8.59 3.344 28.168 34.016 73.145 61.383 78.129 63.297 5.688-1.25 15.668-.832 15.668-.832s-4.164.543-8.469 1.016c7.5 9.801 33.828 11.605 67.828 15.641 45.672 5.391 63.719 30.918 66.359 31.344.828-2.219-.776-.202-1.058-8.241 7.625 12.62-2.146 46.788 11.456 60.819 13.039 13.477 31.492 25.133 36.195 31.508 1.477 1.984 3.328 6.102 2.359 17.625-.461 5.258-4.297 8.164-8.133 14.984-2.453 1.18-5.586 1.461-9.617 0-23.43-8.43-30.398 3.867-30.398 3.867s14.164-1.508 13.742 6.82c1.195-.227 2.578-.359 4.031-.391-3.328 1.18-6.594 3.93-8.594 9.703 6.086-3.508 11.641 3.586 14.313 7.148 2.656 3.57 5.719.484 5.719.484s7.281-8.484 13.359-8.578c-.664.375-18.422 4.813-13.828 24.328 2.344-12.297 16.5-2.859 20.031-7.625.203-.906-.063-3.563 1.898-6.219 1.977-2.641 13.383-6.672 13.383-6.672s11.281-18.422 11.906-29.109c.172-2.953 2.844-17.625 3.094-43.406-19.398-1.688-20.367-14.594-22.172-28.625-1.242-9.641-4.359-16.594-6.203-20.031 3.656 5.719 14.273 19.406 30.063 15.734 10.851-2.547 10.969-13.735 10.016-22.926M90.49-117.516a18.79 18.79 0 0 0-.953-.793c.343.274.671.528.953.793m-1.383-1.121c-.313-.215-.617-.449-.938-.664.313.223.625.442.938.664" style="fill:#ffd730"/></svg>