<svg xmlns="http://www.w3.org/2000/svg" xml:space="preserve" width="469.856" height="472.281" viewBox="-205.819 -205.652 469.855 472.281"><path d="M-205.819-205.652h469.854V49.275h-469.854z" style="fill:#f9f9f9"/><path d="M-205.819 30.906h469.854v235.723h-469.854z" style="fill:#16a74e"/><path d="M-136.116-181.203v.734c1.984.152 3.41.449 4.258.914 1.648.871 2.488 2.559 2.488 5.016v36.969c0 2.488-.883 4.207-2.609 5.117-.879.473-2.297.723-4.137.832v.746h42.992c.168-.922 2.664-14.727 2.906-16.047h-1.058c-2.27 5.727-5.008 9.695-8.152 11.734-3.207 2.094-7.215 3.152-11.918 3.152-2.703 0-4.504-.297-5.496-.922-1.074-.664-1.625-1.973-1.625-3.895v-36.086c0-3.25.594-5.266 1.816-6.164 1.07-.805 3.055-1.238 5.969-1.391v-.719h-25.434v.01zM-85.323-181.203v.734c2.055.129 3.52.402 4.414.867 1.691.879 2.539 2.582 2.539 5.063v36.984c0 2.504-.891 4.23-2.648 5.145-.93.473-2.402.711-4.305.801v.734h25.43v-.711c-2.191-.066-3.871-.426-5.063-1.145-1.383-.832-2.086-2.465-2.086-4.824v-36.984c0-2.504.863-4.215 2.574-5.105.902-.449 2.434-.719 4.574-.84v-.719h-25.429zM-55.546-181.203v.734c1.957.152 3.352.449 4.199.914 1.59.871 2.406 2.559 2.406 5.016v36.984c0 2.488-.863 4.191-2.574 5.102-.863.473-2.242.723-4.031.832v.746h23.863c6.313 0 11.43-1.289 15.191-3.816 3.742-2.521 5.574-5.711 5.574-9.754 0-4.328-1.91-7.613-5.832-10.063-2-1.23-4.414-2.145-7.152-2.672l-.504-.094v-1.754l.512-.098c2.563-.477 4.969-1.613 7.188-3.396 2.16-1.742 3.199-4.039 3.199-7.023 0-4.93-2.633-8.25-8.059-10.145-2.91-1.008-6.645-1.521-11.102-1.521h-22.878v.008zm17.446 5.352c0-1.578.387-2.711 1.16-3.367.754-.648 1.977-.961 3.754-.961 3.27 0 5.52 1.129 6.703 3.32 1.121 2.086 1.672 4.648 1.672 7.648 0 4.102-.879 7.008-2.648 8.664-1.77 1.68-5.039 2.496-10.008 2.496h-.633v-17.8zm0 38.593v-19.746l.617-.023c4.336-.09 7.449.426 9.52 1.59 3.434 1.898 5.168 5.738 5.168 11.395 0 3.758-.785 6.719-2.328 8.785-1.582 2.133-4.32 3.207-8.145 3.207-2.008 0-3.398-.656-4.145-1.961-.437-.719-.664-1.786-.687-3.247M-4.764-181.203v.734c1.984.152 3.426.449 4.273.914 1.68.863 2.535 2.559 2.535 5.016v36.984c0 2.43-.832 4.109-2.473 5.016-.902.52-2.391.809-4.344.91v.746h43.488c.172-.898 2.625-13.266 2.875-14.586h-.969c-2.375 5.066-5.156 8.602-8.25 10.504-3.168 1.938-7.313 2.922-12.281 2.922-2.75 0-4.527-.328-5.488-.992-1.016-.703-1.52-1.984-1.52-3.824v-19.121h.642c4.496 0 7.695.961 9.488 2.854 1.711 1.809 2.824 4.771 3.418 8.953h.789v-24.457h-.824c-.832 4.176-2.016 7.059-3.59 8.707-1.672 1.773-4.719 2.613-9.297 2.566l-.617-.008v-18.289c0-1.664.395-2.777 1.195-3.383.773-.586 2.293-.863 4.82-.863 6.32 0 10.586.934 13.047 2.848 2.328 1.832 4 5.191 5.016 9.941h.828v-14.094l-42.761.002zM46.302-181.203v.75c2.359.242 3.914.664 4.719 1.281 1.266 1.031 1.867 3.07 1.867 6.223v33.793c0 3.047-.508 4.992-1.602 5.969-.953.879-2.625 1.383-4.984 1.559v.738H70.63v-.73c-2.492-.168-4.188-.711-5.117-1.688-1.016-1.063-1.508-2.977-1.508-5.848v-36.824c0-1.367.414-2.383 1.195-3.016.773-.613 2.164-.902 4.414-.902 4 0 6.82 1.59 8.344 4.719.852 1.816 1.289 4.258 1.289 7.297 0 5.117-1.156 8.313-3.539 9.781-2.258 1.41-5.883 2.129-11.047 2.203 0 0-.445 0-.57.008.156.184 1.125 1.422 1.125 1.422s17.25 23.098 17.625 23.586h15v-.664c-.477-.063-.984-.129-1.359-.273-.578-.223-1.133-.703-1.625-1.398l-16.828-22.52 1-.191c2.625-.473 5.141-1.594 7.5-3.313 3.063-2.281 4.547-5.328 4.547-9.305 0-5.375-2.859-9-8.734-11.09-3.063-1.039-7.156-1.559-12.156-1.559H46.302v-.008zM99.482-181.203c0 1.109-.063 12.984-.063 14.102h1.016c.602-5.316 2.734-9.086 6.438-11.102 2.063-1.113 5.047-1.727 8.852-1.832l.641-.023v40.887c0 2.992-.555 4.969-1.688 6.039-1.031.977-2.984 1.473-5.82 1.539v.703h26v-.695c-2.922-.074-4.883-.547-5.922-1.523-1.109-1.063-1.648-3.047-1.648-6.063v-40.887l.633.023c3.891.105 6.875.719 8.875 1.832 3.453 1.977 5.578 5.742 6.391 11.102h1.047c0-1.117-.063-12.992-.078-14.102H99.482zM179.185-199.98l-.031.008a5.602 5.602 0 0 0-1.164 1.105s-6.594 8.137-8.953 11.031h2.461c.328-.191 10.063-6.648 10.063-6.648.906-.582 1.594-1.145 2.047-1.664.391-.438.578-1.07.578-1.871 0-.785-.234-1.418-.758-1.953-.508-.527-1.164-.773-2.047-.773-.766-.009-1.509.23-2.196.765m-29.625 18.777v.734c2 .152 3.43.449 4.281.914 1.672.863 2.516 2.559 2.516 5.016v36.984c0 2.43-.813 4.109-2.438 5.016-.938.52-2.422.809-4.359.91v.746h43.484c.188-.898 2.625-13.266 2.891-14.586h-.969c-2.406 5.066-5.172 8.602-8.266 10.504-3.188 1.938-7.305 2.922-12.273 2.922-2.758 0-4.539-.328-5.492-.992-1-.703-1.516-1.984-1.516-3.824v-19.121h.625c4.516 0 7.703.961 9.5 2.854 1.719 1.809 2.82 4.771 3.414 8.953h.781v-24.457h-.82c-.828 4.176-2 7.059-3.57 8.707-1.688 1.773-4.734 2.613-9.297 2.566l-.625-.008v-18.289c0-1.664.398-2.777 1.188-3.383.766-.586 2.289-.863 4.828-.863 6.313 0 10.578.934 13.039 2.848 2.328 1.832 4 5.191 5.016 9.941h.813v-14.094l-42.751.002zM-18.163-112.234v.734c2.008.16 3.422.449 4.281.914 1.68.871 2.527 2.559 2.527 5.023v36.984c0 2.422-.832 4.109-2.457 5.016-.922.512-2.398.797-4.359.902v.754h43.488c.184-.898 2.621-13.273 2.879-14.594h-.961c-2.398 5.063-5.168 8.609-8.277 10.504-3.168 1.938-7.281 2.922-12.25 2.922-2.75 0-4.551-.328-5.504-.992C.212-64.782-.3-66.059-.3-67.891v-19.121h.625c4.512 0 7.703.961 9.512 2.848 1.695 1.809 2.816 4.77 3.391 8.961h.801v-24.449h-.816c-.855 4.168-2.016 7.051-3.574 8.703-1.707 1.777-4.746 2.609-9.313 2.563l-.625-.008v-18.289c0-1.664.391-2.77 1.184-3.383.77-.586 2.305-.855 4.832-.855 6.313 0 10.578.926 13.023 2.848 2.336 1.832 4.023 5.184 5.023 9.941h.832v-14.109h-42.758v.007zM33.591-112.234c-.016 1.109-.063 12.992-.078 14.109h1.031c.609-5.328 2.742-9.094 6.43-11.102 2.063-1.121 5.047-1.738 8.852-1.832l.656-.023v40.879c0 2.992-.563 4.977-1.688 6.039-1.047.977-2.984 1.488-5.828 1.543v.707H68.95v-.695c-2.906-.066-4.875-.555-5.891-1.523-1.141-1.063-1.664-3.047-1.664-6.063v-40.879l.648.023c3.875.094 6.859.711 8.859 1.832 3.453 1.969 5.578 5.727 6.391 11.102h1.047c0-1.117-.063-13-.063-14.109H33.591v-.008zM-106.436-43.265v.766c2.297.313 3.898.832 4.801 1.609 1.023.887 1.52 2.816 1.52 5.887v33.801c0 2.887-.48 4.801-1.465 5.816-.902.918-2.52 1.473-4.855 1.703v.754h24.039v-.739c-2.375-.168-4.039-.656-5.016-1.574-1.063-1-1.582-2.938-1.582-5.953v-14.887h.625c4.504 0 7.949-.113 10.23-.313 2.238-.199 4.512-.77 6.754-1.672 2.902-1.281 5.023-2.969 6.277-5.051 1.266-2.094 1.906-4.359 1.906-6.734 0-4.953-1.57-8.328-4.793-10.344-3.281-2.031-8.16-3.063-14.512-3.063h-23.93l.001-.006zm17.441 4.589c0-1.281.438-2.184 1.313-2.672.758-.406 1.926-.609 3.566-.609 3.543 0 5.984 1.184 7.273 3.547 1.207 2.215 1.832 5.168 1.832 8.75 0 5.313-1.32 8.855-3.914 10.512-1.633 1.047-4.719 1.594-9.43 1.672l-.641.016.001-21.216zM-41.085-44.371c-.313.77-16.727 41.441-16.727 41.441-1.375 3.391-2.418 5.527-3.176 6.559-1.098 1.512-2.559 2.375-4.305 2.656v.785h14.305v-.722c-1.465-.047-2.656-.184-3.465-.441-2.191-.75-2.648-2.047-2.648-3 0-.965.344-2.453 1.039-4.5.012 0 2.336-6.363 2.336-6.363h18.011l2.086 5.02 1.008 2.652c.434 1.297.641 2.266.641 2.938 0 1.594-.527 2.609-1.566 3.031-.785.328-2.281.543-4.496.656v.723h23.422V6.34c-1.633-.113-2.953-.801-3.895-2.113-.984-1.359-2.41-4.246-4.352-8.836l-16.859-39.77h-1.359v.008zm-4.558 15.695h1.383l7.883 18.984h-16.699l7.433-18.984zM-15.163-43.265c0 1.109-.074 12.98-.074 14.109h1.035c.582-5.328 2.711-9.094 6.414-11.109 2.082-1.113 5.063-1.723 8.863-1.836l.649-.016v40.875c0 3-.543 4.984-1.688 6.047-1.046.984-2.984 1.488-5.824 1.543v.703h25.992v-.703c-2.902-.063-4.871-.559-5.918-1.527-1.105-1.047-1.656-3.031-1.656-6.063v-40.875l.637.016c3.898.113 6.883.723 8.883 1.844 3.445 1.965 5.574 5.719 6.391 11.094h1.055c0-1.129-.07-13-.07-14.109h-44.688l-.001.007zM35.06-43.265v.75c2.359.25 3.93.672 4.719 1.297 1.273 1.016 1.883 3.063 1.883 6.215v33.801c0 3.031-.523 4.984-1.602 5.969-.961.871-2.633 1.375-5 1.559v.738h24.32v-.74c-2.492-.168-4.18-.703-5.117-1.688-1.016-1.066-1.5-2.969-1.5-5.84v-36.832c0-1.375.406-2.395 1.188-3.016.773-.625 2.172-.906 4.406-.906 4.016 0 6.828 1.594 8.359 4.723.844 1.816 1.281 4.262 1.281 7.297 0 5.109-1.156 8.309-3.531 9.781-2.266 1.41-5.891 2.129-11.055 2.199h-.555c.148.184 1.117 1.426 1.117 1.426S71.216 6.563 71.591 7.063h15v-.672c-.469-.066-.961-.129-1.359-.281-.57-.219-1.133-.688-1.602-1.395L66.794-17.797l.984-.184c2.633-.488 5.156-1.605 7.508-3.328 3.047-2.277 4.539-5.328 4.539-9.313 0-5.359-2.867-8.98-8.742-11.063-3.07-1.047-7.148-1.574-12.148-1.574H35.06v-.006zM90.122-43.265v.719c2.063.145 3.523.422 4.422.887 1.688.871 2.539 2.578 2.539 5.066V.391c0 2.5-.898 4.23-2.664 5.141-.922.473-2.398.703-4.297.801v.738h25.453v-.707c-2.203-.063-3.891-.438-5.078-1.145-1.391-.84-2.117-2.469-2.117-4.828v-36.984c0-2.516.883-4.234 2.594-5.113.898-.457 2.438-.723 4.586-.84v-.719H90.122zM119.771-43.265v.734c1.984.16 3.414.457 4.266.922 1.672.855 2.539 2.543 2.539 5.016V.391c0 2.422-.828 4.109-2.469 5.016-.906.512-2.406.797-4.344.902v.754h43.469c.188-.906 2.625-13.281 2.891-14.594h-.969c-2.391 5.063-5.156 8.609-8.25 10.504-3.164 1.934-7.313 2.918-12.273 2.918-2.758 0-4.539-.328-5.492-.984-1.016-.703-1.523-1.98-1.523-3.828v-19.113h.617c4.516 0 7.727.953 9.508 2.84 1.711 1.816 2.82 4.785 3.414 8.969h.781v-24.473h-.813c-.836 4.168-2.016 7.047-3.594 8.719-1.672 1.77-4.703 2.609-9.297 2.543h-.617v-18.277c0-1.672.391-2.77 1.195-3.395.75-.59 2.297-.855 4.82-.855 6.305 0 10.586.938 13.031 2.84 2.344 1.832 4.016 5.188 5.031 9.953h.82v-14.113H119.77l.001.018z" style="fill:#ffd730"/></svg>